# xmcd
#
# Track frame offsets:
#	150
#	15652
#	42510
#	64302
#	78640
#	102830
#	117065
#	138165
#	155310
#	176592
#
# Disc length: 2623 seconds
#
# Revision: 0
# Processed by: cddbd v1.5.2PL0 Copyright (c) Steve Scherf et al.
# Submitted via: audiograbber 1.83.01
#
DISCID=7c0a3d0a
DTITLE="Champion" Jack Dupree - Back Home In New Orleans
DYEAR=1991
DGENRE=Blues
TTITLE0=When I'm Drinkin'
TTITLE1=Lonesome Bedroom
TTITLE2=I Don't Know
TTITLE3=Calcutta Blues
TTITLE4=Freedom
TTITLE5=My Woman Left Me
TTITLE6=Broken Hearted
TTITLE7=Way Down
TTITLE8=The Blind Man
TTITLE9=No Future
EXTD=Rounder/Bulls Eye Blues CD 9502\n\nChampion Jack Dupree:  piano, vocals an
EXTD=d foot\nKenn Lending:  guitar\nStanley Stephens:  drums\nTeddy Riley:  tru
EXTD=mpet\nAlvin "Red" Tyler:  tenor saxophone\nFred Kemp:  tenor saxophone\n"S
EXTD=ax" Gordon tenor and baritone saxophones\n\nSubmitted by J. McCoy (April 1
EXTD=997)
EXTT0=
EXTT1=
EXTT2=
EXTT3=
EXTT4=
EXTT5=
EXTT6=
EXTT7=
EXTT8=
EXTT9=
PLAYORDER=
